<svg width="203" height="33" viewBox="0 0 203 33" fill="none" xmlns="http://www.w3.org/2000/svg">
<mask id="mask0_148_75" style="mask-type:luminance" maskUnits="userSpaceOnUse" x="0" y="0" width="203" height="33">
<path d="M203 0H0V32.0952H203V0Z" fill="white"/>
</mask>
<g mask="url(#mask0_148_75)">
<path d="M13.8439 11.4288C21.0728 11.9964 26.1132 13.4649 26.1132 18.3388C26.1132 22.7787 21.7692 25.9488 13.8771 25.9488C8.4388 25.9488 3.63058 24.3468 0.0161133 21.2077L2.50313 18.3726C5.65336 21.2077 9.36728 22.4774 14.0429 22.4774C19.2159 22.4774 22.0677 21.1091 22.0677 18.671C22.0677 16.2687 19.1496 15.6347 13.3133 15.1338C6.91344 14.5997 0.878279 13.1645 0.878279 8.3913C0.878279 3.75158 6.21708 1.18143 12.8823 1.18143C17.9226 1.18143 22.2003 2.68343 24.9858 5.0534L22.4656 7.79049C20.078 5.6877 16.7952 4.68629 12.9486 4.65278C9.26782 4.61956 4.89067 5.52076 4.89067 8.12441C4.89067 10.5943 8.7704 11.0282 13.8439 11.4288ZM40.4485 21.5089L41.4767 24.2117C39.9843 25.214 37.9616 25.915 35.8725 25.915C32.3243 25.915 29.5059 24.0118 29.5059 20.2082V10.0602H25.9908V6.95602H29.5059V2.71693H33.3855V6.95602H41.3107V10.0602H33.3855V19.572C33.3855 21.6103 34.944 22.6097 36.834 22.6097C38.1937 22.6097 39.3543 22.1114 40.4485 21.5089ZM59.2133 6.95602H63.2921L49.5637 31.923H45.5182L50.0609 24.0456L40.5773 6.95602H44.7555L52.0506 20.3068L59.2133 6.95602ZM68.7574 25.2478H64.9107V0.547408H68.7574V25.2478ZM75.3483 16.9706C75.7131 20.9431 78.598 22.8772 83.174 22.8772C86.5231 22.8772 88.6125 22.0101 90.6019 20.242L92.8567 22.6773C90.3697 24.9127 87.2195 25.9488 82.9752 25.9488C75.7131 25.9488 71.5347 22.1424 71.5347 16.1352C71.5347 10.0602 75.7131 6.255 82.7098 6.255C89.2425 6.255 93.487 9.69313 93.487 16.102C93.487 16.5359 93.4537 16.7707 93.3873 16.9706H75.3483ZM82.7431 9.32601C78.9295 9.32601 76.2435 10.9615 75.5141 14.1994L89.7397 14.1659C88.9107 10.828 86.3243 9.32601 82.7431 9.32601ZM122.396 1.88246H126.673V25.2478H122.694V7.32315L111.652 20.8079H111.42L100.377 7.32315V25.2478H96.5309V1.88246H100.842L111.619 15.2676L122.396 1.88246ZM133.143 4.45261C131.718 4.45261 130.656 3.48469 130.656 2.28309C130.656 1.01449 131.718 0.113281 133.143 0.113281C134.569 0.113281 135.597 1.01449 135.597 2.28309C135.597 3.48469 134.569 4.45261 133.143 4.45261ZM135.1 6.95602V25.2478H131.253V6.95602H135.1ZM142.985 25.2478H139.106V6.95602H142.985V11.1284C144.444 8.19113 147.827 6.58891 151.574 6.58891V9.99352C147.528 9.99352 144.212 11.696 142.985 15.1338V25.2478ZM157.025 25.2478H153.146V6.95602H157.025V11.1284C158.484 8.19113 161.867 6.58891 165.614 6.58891V9.99352C161.568 9.99352 158.252 11.696 157.025 15.1338V25.2478ZM176.293 25.9488C169.263 25.9488 164.986 22.1762 164.986 16.1352C164.986 10.0602 169.263 6.255 176.293 6.255C183.357 6.255 187.601 10.0602 187.601 16.1352C187.601 22.1762 183.357 25.9488 176.293 25.9488ZM176.293 22.6773C180.604 22.6773 183.821 20.5067 183.821 16.1352C183.821 11.696 180.604 9.52618 176.293 9.52618C172.016 9.52618 168.799 11.696 168.799 16.1352C168.799 20.5067 172.016 22.6773 176.293 22.6773ZM194.205 25.2478H190.325V6.95602H194.205V11.1284C195.664 8.19113 199.046 6.58891 202.794 6.58891V9.99352C198.748 9.99352 195.432 11.696 194.205 15.1338V25.2478Z" fill="black"/>
</g>
</svg>
