<svg width="36" height="36" viewBox="0 0 36 36" fill="none" xmlns="http://www.w3.org/2000/svg">
<path d="M27.0003 9C26.0853 9 25.2453 8.475 24.8253 7.665L23.7453 5.49C23.0553 4.125 21.2553 3 19.7253 3H16.2903C14.7453 3 12.9453 4.125 12.2553 5.49L11.1753 7.665C10.7553 8.475 9.91525 9 9.00025 9C5.74525 9 3.16525 11.745 3.37525 14.985L4.15525 27.375C4.33525 30.465 6.00025 33 10.1403 33H25.8603C30.0003 33 31.6503 30.465 31.8453 27.375L32.6253 14.985C32.8353 11.745 30.2553 9 27.0003 9ZM15.7503 10.875H20.2503C20.8653 10.875 21.3753 11.385 21.3753 12C21.3753 12.615 20.8653 13.125 20.2503 13.125H15.7503C15.1353 13.125 14.6253 12.615 14.6253 12C14.6253 11.385 15.1353 10.875 15.7503 10.875ZM18.0003 27.18C15.2103 27.18 12.9303 24.915 12.9303 22.11C12.9303 19.305 15.1953 17.04 18.0003 17.04C20.8053 17.04 23.0703 19.305 23.0703 22.11C23.0703 24.915 20.7903 27.18 18.0003 27.18Z" fill="black"/>
</svg>
