<svg width="18" height="18" viewBox="0 0 18 18" fill="none" xmlns="http://www.w3.org/2000/svg">
<path d="M14.6448 4.10536C13.1898 2.65036 11.7648 2.61286 10.2723 4.10536L9.36482 5.01286C9.28982 5.08786 9.25982 5.20786 9.28982 5.31286C9.85982 7.30036 11.4498 8.89036 13.4373 9.46036C13.4673 9.46786 13.4973 9.47536 13.5273 9.47536C13.6098 9.47536 13.6848 9.44536 13.7448 9.38536L14.6448 8.47786C15.3873 7.74286 15.7473 7.03036 15.7473 6.31036C15.7548 5.56786 15.3948 4.84786 14.6448 4.10536Z" fill="#808080"/>
<path d="M12.0871 10.1427C11.8696 10.0377 11.6596 9.93271 11.4571 9.81271C11.2921 9.71521 11.1346 9.61021 10.9771 9.49771C10.8496 9.41521 10.6996 9.29521 10.5571 9.17521C10.5421 9.16771 10.4896 9.12271 10.4296 9.06271C10.1821 8.85271 9.90463 8.58271 9.65713 8.28271C9.63463 8.26771 9.59713 8.21521 9.54463 8.14771C9.46963 8.05771 9.34213 7.90771 9.22963 7.73521C9.13963 7.62271 9.03463 7.45771 8.93713 7.29271C8.81713 7.09021 8.71213 6.88771 8.60713 6.67771C8.46946 6.38271 8.08227 6.29507 7.85208 6.52527L3.63463 10.7427C3.53713 10.8402 3.44713 11.0277 3.42463 11.1552L3.01963 14.0277C2.94463 14.5377 3.08713 15.0177 3.40213 15.3402C3.67213 15.6027 4.04713 15.7452 4.45213 15.7452C4.54213 15.7452 4.63213 15.7377 4.72213 15.7227L7.60213 15.3177C7.73713 15.2952 7.92463 15.2052 8.01463 15.1077L12.239 10.8833C12.4646 10.6577 12.3799 10.2696 12.0871 10.1427Z" fill="#808080"/>
</svg>
